<?xml version="1.0" standalone="no"?>
<!DOCTYPE svg PUBLIC "-//W3C//DTD SVG 20010904//EN"
 "http://www.w3.org/TR/2001/REC-SVG-20010904/DTD/svg10.dtd">
<svg version="1.0" xmlns="http://www.w3.org/2000/svg"
 width="1024.000000pt" height="1024.000000pt" viewBox="0 0 1024.000000 1024.000000"
 preserveAspectRatio="xMidYMid meet">
<metadata>
Created by potrace 1.11, written by Peter Selinger 2001-2013
</metadata>
<g transform="translate(0.000000,1024.000000) scale(0.100000,-0.100000)"
fill="#000000" stroke="none">
<path d="M3939 8986 c-3 -3 -20 -8 -39 -11 -110 -18 -252 -82 -339 -152 -78
-62 -167 -164 -216 -243 -30 -50 -78 -164 -140 -336 -52 -142 -102 -278 -110
-301 l-16 -41 -777 -1 c-427 0 -797 -3 -821 -6 -134 -17 -260 -65 -367 -140
-60 -42 -191 -183 -231 -250 -50 -83 -88 -186 -103 -279 -7 -46 -10 -850 -10
-2594 0 -1390 2 -2536 4 -2547 2 -11 7 -40 11 -65 10 -68 72 -215 117 -280
120 -176 304 -303 501 -348 66 -14 396 -16 3707 -16 1999 0 3652 3 3672 7 136
25 218 57 318 122 60 38 164 133 200 180 72 95 117 190 146 304 l25 96 0 2537
c0 1761 -4 2557 -11 2604 -45 282 -262 540 -530 630 -130 43 -174 45 -993 45
-590 0 -779 3 -782 12 -2 7 -25 71 -51 142 -25 72 -57 162 -71 200 -13 39 -28
79 -33 90 -5 11 -21 50 -34 87 -26 72 -90 188 -128 233 -43 51 -133 140 -168
166 -62 46 -168 99 -252 127 l-83 27 -1196 3 c-657 1 -1198 0 -1200 -2z m1401
-2320 c179 -19 322 -52 485 -111 142 -51 356 -160 441 -224 12 -9 32 -23 44
-31 99 -65 284 -235 365 -335 22 -27 46 -56 53 -65 97 -110 237 -360 308 -548
23 -63 69 -221 78 -272 2 -14 5 -26 7 -27 3 -5 5 -16 14 -88 4 -38 10 -81 12
-95 8 -55 10 -389 3 -445 -5 -33 -11 -80 -14 -105 -29 -221 -131 -514 -244
-700 -12 -19 -26 -44 -31 -55 -10 -22 -123 -183 -161 -230 -14 -16 -74 -80
-135 -141 -201 -202 -413 -343 -680 -451 -108 -44 -327 -105 -415 -117 -25 -3
-81 -10 -125 -16 -73 -10 -426 -7 -485 3 -14 2 -49 8 -79 12 -175 23 -433 108
-606 200 -252 133 -467 308 -640 520 -237 291 -408 698 -442 1055 -20 201 -7
485 29 660 6 30 12 60 14 65 20 102 109 345 156 430 7 11 25 45 41 75 32 61
124 204 153 240 123 151 218 250 314 330 30 25 57 47 60 51 10 12 193 134 244
161 184 102 434 196 591 223 108 19 150 25 210 31 39 3 71 7 72 8 5 5 306 -2
363 -8z"/>
<path d="M5005 6128 c-137 -10 -210 -24 -345 -68 -235 -76 -410 -187 -600
-379 -300 -303 -443 -659 -434 -1077 3 -175 44 -388 94 -499 5 -11 24 -54 43
-96 129 -287 405 -567 707 -719 197 -99 395 -144 640 -145 256 0 456 43 661
145 56 27 185 105 199 120 3 3 31 25 63 48 56 42 257 239 257 252 0 4 10 18
21 31 42 47 131 191 169 273 54 116 101 267 115 366 25 174 25 376 0 515 -43
240 -140 455 -299 664 -46 59 -258 258 -331 310 -138 97 -371 203 -495 225
-14 2 -36 7 -50 10 -48 11 -85 16 -165 22 -132 9 -146 9 -250 2z"/>
</g>
</svg>
